<mxCell id="12" value="$STATEMACHINE : {{smName}}" ...stuff...>
